<?xml version="1.0" encoding="utf-8"?>
<!-- Generator: Adobe Illustrator 27.2.0, SVG Export Plug-In . SVG Version: 6.00 Build 0)  -->
<svg version="1.1" id="Layer_1" xmlns="http://www.w3.org/2000/svg" xmlns:xlink="http://www.w3.org/1999/xlink" x="0px" y="0px"
	 viewBox="0 0 670.21 920.94" style="enable-background:new 0 0 670.21 920.94;" xml:space="preserve">
<style type="text/css">
	.st0{fill:#FC0000;}
	.st1{fill:#FFFFFF;}
</style>
<g>
	<path class="st0" d="M66.55,913.65c-11.16,0-21.51-2.81-30.76-8.35c-9.23-5.53-16.61-13.19-21.92-22.78
		c-5.3-9.55-7.98-20.22-7.98-31.7c0-11.39,2.69-21.98,7.99-31.49c5.31-9.52,12.68-17.18,21.9-22.76c9.26-5.6,19.62-8.44,30.78-8.44
		c7.85,0,14.8,1.07,20.66,3.18c5.81,2.1,11.74,5.56,17.61,10.28c1.82,1.38,3.11,2.95,3.83,4.66c0.65,1.54,0.97,3.28,0.97,5.18
		c0,3.34-1.3,6.27-3.75,8.47c-2.29,2.06-5.11,3.15-8.15,3.15c-3,0-5.75-1.01-8.19-2.99l-0.09-0.07c-3.51-3-6.93-5.16-10.15-6.45
		c-3.15-1.25-7.43-1.88-12.73-1.88c-6.61,0-12.52,1.69-18.06,5.16s-10.01,8.27-13.28,14.25c-3.28,6.01-4.95,12.66-4.95,19.76
		c0,7.2,1.66,13.87,4.94,19.82c3.27,5.95,7.74,10.73,13.28,14.2c5.54,3.47,11.45,5.16,18.06,5.16c8.2,0,15.91-2.79,23.56-8.53
		l0.11-0.08c2.48-1.75,5.05-2.64,7.63-2.64c3.21,0,6.04,1.22,8.19,3.54c2.05,2.22,3.13,5.15,3.13,8.51c0,3.33-1.3,6.39-3.77,8.86
		l-0.19,0.19l-0.21,0.17C93.77,909.06,80.83,913.65,66.55,913.65z"/>
	<path class="st0" d="M155.83,912.78c-7.83,0-15.04-2-21.44-5.93c-6.37-3.92-11.44-9.4-15.07-16.27c-3.59-6.8-5.41-14.45-5.41-22.74
		c0-8.34,1.96-16.03,5.84-22.87c3.89-6.86,9.34-12.34,16.2-16.29c6.84-3.93,14.5-5.93,22.75-5.93c8.26,0,15.88,2,22.63,5.94
		c6.74,3.94,12.16,9.41,16.09,16.24c3.93,6.85,5.93,14.55,5.93,22.9V900c0,3.43-1.23,6.46-3.55,8.78s-5.36,3.55-8.78,3.55
		c-3.43,0-6.47-1.23-8.79-3.55c-1.07-1.07-1.91-2.29-2.5-3.63c-1.94,1.39-4,2.61-6.18,3.66
		C168.1,911.45,162.13,912.78,155.83,912.78z M158.71,845.7c-3.92,0-7.35,0.92-10.48,2.82c-3.16,1.91-5.6,4.49-7.44,7.87
		c-1.87,3.42-2.78,7.17-2.78,11.46c0,4.28,0.91,8,2.77,11.37c1.85,3.35,4.29,5.9,7.45,7.82c3.13,1.9,6.56,2.82,10.48,2.82
		s7.35-0.92,10.48-2.82c3.15-1.91,5.56-4.45,7.36-7.78c1.83-3.38,2.72-7.11,2.72-11.41s-0.89-8.07-2.73-11.5
		c-1.8-3.36-4.21-5.93-7.35-7.83C166.06,846.62,162.63,845.7,158.71,845.7z"/>
	<path class="st0" d="M288.96,912.35c-3.43,0-6.47-1.23-8.79-3.55s-3.55-5.35-3.55-8.78v-35.49c0-6.43-1.55-11.03-4.74-14.07
		c-3.25-3.1-7.58-4.61-13.23-4.61c-3.3,0-6.19,0.63-8.84,1.94c-2.55,1.26-4.46,2.88-5.86,4.95c-1.32,1.97-1.97,4.13-1.97,6.6v40.69
		c0,3.39-1.18,6.41-3.42,8.72c-2.28,2.36-5.36,3.61-8.92,3.61c-3.43,0-6.47-1.23-8.79-3.55c-2.32-2.32-3.55-5.35-3.55-8.78v-64.35
		c0-3.55,1.25-6.63,3.61-8.92c2.31-2.24,5.33-3.42,8.72-3.42c3.52,0,6.58,1.2,8.85,3.47c0.55,0.55,1.04,1.15,1.46,1.79
		c1.93-1.2,3.99-2.24,6.17-3.11c4.8-1.91,9.98-2.88,15.4-2.88c7.45,0,14.27,1.66,20.27,4.94c6.12,3.34,10.97,8.26,14.4,14.63
		c3.36,6.25,5.07,13.76,5.07,22.35v35.49c0,3.43-1.23,6.46-3.55,8.78C295.42,911.12,292.39,912.35,288.96,912.35z"/>
</g>
<g>
	<path class="st1" d="M329.56,912.21c-3.43,0-6.49-1.25-8.86-3.62s-3.62-5.43-3.62-8.86v-97.68c0-3.55,1.27-6.66,3.68-8.99
		c2.37-2.28,5.41-3.49,8.8-3.49h65.21c3.48,0,6.52,1.15,8.79,3.34c2.32,2.24,3.54,5.25,3.54,8.71c0,3.4-1.25,6.36-3.61,8.55
		c-2.29,2.13-5.22,3.2-8.72,3.2h-52.74v25.11h36.43c3.36,0,6.35,1.13,8.65,3.28c2.41,2.25,3.68,5.22,3.68,8.62s-1.27,6.38-3.68,8.62
		c-2.31,2.15-5.3,3.28-8.66,3.28h-36.43v26.12h52.74c3.44,0,6.46,1.11,8.72,3.2c2.37,2.2,3.61,5.16,3.61,8.56
		c0,3.46-1.22,6.47-3.54,8.7c-2.27,2.19-5.31,3.34-8.79,3.34L329.56,912.21L329.56,912.21z"/>
	<path class="st1" d="M450.29,912.06c-2.65,0-4.95-0.65-6.84-1.95c-1.78-1.21-3.27-3.03-4.53-5.56l-30.61-64.54
		c-0.71-1.45-1.08-3.05-1.08-4.77c0-4.46,2.38-8.13,6.7-10.32c1.59-0.86,3.38-1.29,5.34-1.29c2.05,0,4.01,0.55,5.84,1.63
		c1.9,1.13,3.37,2.72,4.38,4.73l20.63,44.45l20.35-44.38l0.04-0.07c1.02-2.05,2.54-3.65,4.52-4.77c1.86-1.05,3.87-1.58,5.99-1.58
		c1.99,0,3.83,0.41,5.47,1.21c2.06,0.96,3.7,2.34,4.87,4.1c1.23,1.85,1.85,3.91,1.85,6.15c0,1.62-0.41,3.28-1.22,4.91l-30.57,64.45
		C459.2,909.34,455.24,912.06,450.29,912.06z"/>
	<path class="st1" d="M513.45,912.21c-3.43,0-6.47-1.23-8.79-3.55s-3.55-5.35-3.55-8.78v-64.2c0-3.55,1.25-6.63,3.61-8.92
		c2.31-2.24,5.33-3.42,8.72-3.42c3.52,0,6.58,1.2,8.85,3.47c2.28,2.28,3.48,5.35,3.48,8.86v64.2c0,3.39-1.18,6.41-3.42,8.72
		C520.08,910.96,517,912.21,513.45,912.21z M513.45,820.45c-3.9,0-7.43-1.48-10.23-4.27c-2.79-2.79-4.27-6.33-4.27-10.23
		c0-3.9,1.48-7.43,4.27-10.23c2.79-2.79,6.33-4.27,10.23-4.27s7.43,1.48,10.23,4.27c2.79,2.79,4.27,6.33,4.27,10.23
		c0,3.9-1.48,7.43-4.27,10.23C520.88,818.97,517.35,820.45,513.45,820.45z"/>
	<path class="st1" d="M651.81,912.35c-3.43,0-6.47-1.23-8.79-3.55s-3.55-5.35-3.55-8.78v-41.26c0-4.5-1.01-7.83-3-9.89
		c-1.97-2.04-4.65-3.03-8.18-3.03c-3.64,0-6.4,1.15-8.69,3.61c-2.36,2.53-3.5,5.76-3.5,9.89v40.69c0,3.39-1.18,6.41-3.42,8.72
		c-2.28,2.36-5.37,3.61-8.92,3.61c-3.43,0-6.47-1.23-8.79-3.55c-2.32-2.31-3.55-5.35-3.55-8.78v-41.26c0-4.5-1.01-7.83-3-9.89
		c-1.97-2.04-4.65-3.03-8.18-3.03c-3.74,0-6.55,1.15-8.84,3.61c-2.36,2.53-3.5,5.76-3.5,9.89v40.69c0,3.39-1.18,6.41-3.42,8.72
		c-2.28,2.36-5.36,3.61-8.92,3.61c-3.43,0-6.47-1.23-8.79-3.55s-3.55-5.35-3.55-8.78v-64.2c0-3.55,1.25-6.64,3.61-8.92
		c2.31-2.23,5.33-3.42,8.72-3.42c3.39,0,6.38,1.16,8.65,3.34c0.26,0.25,0.51,0.52,0.75,0.79c1.58-0.98,3.27-1.83,5.05-2.55
		c4.04-1.63,8.45-2.45,13.11-2.45c5.67,0,10.86,1.18,15.45,3.49c2.84,1.44,5.39,3.27,7.62,5.47c2.5-2.18,5.32-4.01,8.45-5.46
		c4.98-2.32,10.54-3.5,16.53-3.5c9.76,0,17.8,3.29,23.9,9.79c6.02,6.41,9.07,15.27,9.07,26.34v41.26c0,3.39-1.18,6.41-3.42,8.72
		C658.44,911.1,655.36,912.35,651.81,912.35z"/>
</g>
<path class="st0" d="M373.57,492.78l-0.91,0.01c-15.2,0.21-29.03,7.53-37.96,19.84c-9.15-11.94-23.01-18.91-38.44-18.91h-0.01
	c-12.16,0.05-23.72,5.02-32.54,13.99c-9.78,9.95-15.27,24.02-15.08,38.62c0.06,5.47,0.92,10.8,2.47,15.56
	c3.04,13.31,20.34,32.09,52.91,57.42c8.64,6.67,21.82,15.85,27.44,19.76c1.39,0.97,2.34,1.62,2.65,1.85
	c0.17,0.13,0.35,0.26,0.53,0.36c0.54,0.3,1.14,0.45,1.74,0.45c0.68,0,1.34-0.19,1.94-0.56c7.49-4.76,17.55-12.34,29.87-22.52
	c31.38-25.69,48.65-45.49,51.25-58.54c1.51-5.09,2.24-10.46,2.17-15.94C421.23,515.84,399.69,492.78,373.57,492.78z"/>
<path class="st1" d="M461.86,252.39c17.75-25.3,28.2-56.09,28.2-89.33c0-86.02-69.74-155.76-155.77-155.76
	S178.53,77.04,178.53,163.06c0,33.25,10.44,64.04,28.2,89.33C-1.37,329.21-41.62,543.82,57.31,678.29
	c17.57,23.88,39.52,45.24,65.72,62.84c14.04,9.43,30.87,14.43,47.02,14.35l0,0h17.32h1.71h17.16c23.75,0,43-19.25,43-43v-70.47
	c0-23.25-18.84-42.09-42.09-42.09h-18.88c-0.03,0-0.06,0-0.08,0h-0.98c-3.38,0-6.37-0.98-8.9-2.62
	c-15.87-7.6-21.86-29.56-8.42-44.18l144.62-157.45c10.45-11.38,28.14-12.13,39.52-1.68c0.58,0.54,1.14,1.1,1.68,1.68l52.55,57.21
	v-8.71c0-3.61,2.93-6.53,6.53-6.53h28.06c3.61,0,6.53,2.93,6.53,6.53v53.49l50.93,55.45c13.77,15,7.13,37.69-9.65,44.72
	c-2.34,1.32-5.03,2.08-8.02,2.08H482c-0.31,0.02-0.63,0.02-0.94,0.04v-0.03h-19.78c-23.25,0-42.09,18.84-42.09,42.09v70.47
	c0,23.75,19.25,43,43.01,43h13.14h5.72h22.07v-0.06c16.74-0.42,33.33-5.75,45.01-12.87c26.94-16.43,47.79-40.38,65.36-64.26
	C712.43,543.82,669.95,329.21,461.86,252.39z"/>
<path class="st1" d="M405.37,698.7L405.37,698.7c0,10.43-8.45,18.88-18.88,18.88H283.73c-10.43,0-18.88-8.45-18.88-18.88l0,0
	c0-10.43,8.45-18.88,18.88-18.88h102.75C396.91,679.81,405.37,688.27,405.37,698.7z"/>
</svg>
