<?xml version="1.0" encoding="utf-8"?>
<!-- Generator: Adobe Illustrator 27.2.0, SVG Export Plug-In . SVG Version: 6.00 Build 0)  -->
<svg version="1.1" id="Layer_1" xmlns="http://www.w3.org/2000/svg" xmlns:xlink="http://www.w3.org/1999/xlink" x="0px" y="0px"
	 viewBox="0 0 1421.48 765.08" style="enable-background:new 0 0 1421.48 765.08;" xml:space="preserve">
<style type="text/css">
	.st0{fill:#FC0000;}
	.st1{fill:#FFFFFF;}
	.st2{fill:#04042B;}
</style>
<g>
	<path class="st0" d="M-715-202.21c-11.16,0-21.51-2.81-30.76-8.35c-9.23-5.53-16.61-13.19-21.92-22.78
		c-5.3-9.55-7.98-20.22-7.98-31.7c0-11.39,2.69-21.98,7.99-31.49c5.31-9.52,12.68-17.18,21.9-22.76c9.26-5.6,19.62-8.44,30.78-8.44
		c7.85,0,14.8,1.07,20.66,3.18c5.81,2.1,11.74,5.56,17.61,10.28c1.82,1.38,3.11,2.95,3.83,4.66c0.65,1.54,0.97,3.28,0.97,5.18
		c0,3.34-1.3,6.27-3.75,8.47c-2.29,2.06-5.11,3.15-8.15,3.15c-3,0-5.75-1.01-8.19-2.99l-0.09-0.07c-3.51-3-6.93-5.16-10.15-6.45
		c-3.15-1.25-7.43-1.88-12.73-1.88c-6.61,0-12.52,1.69-18.06,5.16c-5.54,3.47-10.01,8.27-13.28,14.25
		c-3.28,6.01-4.95,12.66-4.95,19.76c0,7.2,1.66,13.87,4.94,19.82c3.27,5.95,7.74,10.73,13.28,14.2c5.54,3.47,11.45,5.16,18.06,5.16
		c8.2,0,15.91-2.79,23.56-8.53l0.11-0.08c2.48-1.75,5.05-2.64,7.63-2.64c3.21,0,6.04,1.22,8.19,3.54c2.05,2.22,3.13,5.15,3.13,8.51
		c0,3.33-1.3,6.39-3.77,8.86l-0.19,0.19l-0.21,0.17C-687.78-206.8-700.72-202.21-715-202.21z"/>
	<path class="st0" d="M-625.72-203.08c-7.83,0-15.04-2-21.44-5.93c-6.37-3.92-11.44-9.4-15.07-16.27
		c-3.59-6.8-5.41-14.45-5.41-22.74c0-8.34,1.96-16.03,5.84-22.87c3.89-6.86,9.34-12.34,16.2-16.29c6.84-3.93,14.5-5.93,22.75-5.93
		c8.26,0,15.88,2,22.63,5.94c6.74,3.94,12.16,9.41,16.09,16.24c3.93,6.85,5.93,14.55,5.93,22.9v32.17c0,3.43-1.23,6.46-3.55,8.78
		s-5.36,3.55-8.78,3.55c-3.43,0-6.47-1.23-8.79-3.55c-1.07-1.07-1.91-2.29-2.5-3.63c-1.94,1.39-4,2.61-6.18,3.66
		C-613.45-204.41-619.42-203.08-625.72-203.08z M-622.84-270.16c-3.92,0-7.35,0.92-10.48,2.82c-3.16,1.91-5.6,4.49-7.44,7.87
		c-1.87,3.42-2.78,7.17-2.78,11.46c0,4.28,0.91,8,2.77,11.37c1.85,3.35,4.29,5.9,7.45,7.82c3.13,1.9,6.56,2.82,10.48,2.82
		s7.35-0.92,10.48-2.82c3.15-1.91,5.56-4.45,7.36-7.78c1.83-3.38,2.72-7.11,2.72-11.41s-0.89-8.07-2.73-11.5
		c-1.8-3.36-4.21-5.93-7.35-7.83C-615.49-269.24-618.92-270.16-622.84-270.16z"/>
	<path class="st0" d="M-492.59-203.51c-3.43,0-6.47-1.23-8.79-3.55s-3.55-5.35-3.55-8.78v-35.49c0-6.43-1.55-11.03-4.74-14.07
		c-3.25-3.1-7.58-4.61-13.23-4.61c-3.3,0-6.19,0.63-8.84,1.94c-2.55,1.26-4.46,2.88-5.86,4.95c-1.32,1.97-1.97,4.13-1.97,6.6v40.69
		c0,3.39-1.18,6.41-3.42,8.72c-2.28,2.36-5.36,3.61-8.92,3.61c-3.43,0-6.47-1.23-8.79-3.55s-3.55-5.35-3.55-8.78v-64.35
		c0-3.55,1.25-6.63,3.61-8.92c2.31-2.24,5.33-3.42,8.72-3.42c3.52,0,6.58,1.2,8.85,3.47c0.55,0.55,1.04,1.15,1.46,1.79
		c1.93-1.2,3.99-2.24,6.17-3.11c4.8-1.91,9.98-2.88,15.4-2.88c7.45,0,14.27,1.66,20.27,4.94c6.12,3.34,10.97,8.26,14.4,14.63
		c3.36,6.25,5.07,13.76,5.07,22.35v35.49c0,3.43-1.23,6.46-3.55,8.78C-486.13-204.74-489.16-203.51-492.59-203.51z"/>
</g>
<g>
	<path class="st1" d="M-451.99-203.65c-3.43,0-6.49-1.25-8.86-3.62s-3.62-5.43-3.62-8.86v-97.68c0-3.55,1.27-6.66,3.68-8.99
		c2.37-2.28,5.41-3.49,8.8-3.49h65.21c3.48,0,6.52,1.15,8.79,3.34c2.32,2.24,3.54,5.25,3.54,8.71c0,3.4-1.25,6.36-3.61,8.55
		c-2.29,2.13-5.22,3.2-8.72,3.2h-52.74v25.11h36.43c3.36,0,6.35,1.13,8.65,3.28c2.41,2.25,3.68,5.22,3.68,8.62s-1.27,6.38-3.68,8.62
		c-2.31,2.15-5.3,3.28-8.66,3.28h-36.43v26.12h52.74c3.44,0,6.46,1.11,8.72,3.2c2.37,2.2,3.61,5.16,3.61,8.56
		c0,3.46-1.22,6.47-3.54,8.7c-2.27,2.19-5.31,3.34-8.79,3.34L-451.99-203.65L-451.99-203.65z"/>
	<path class="st1" d="M-331.26-203.8c-2.65,0-4.95-0.65-6.84-1.95c-1.78-1.21-3.27-3.03-4.53-5.56l-30.61-64.54
		c-0.71-1.45-1.08-3.05-1.08-4.77c0-4.46,2.38-8.13,6.7-10.32c1.59-0.86,3.38-1.29,5.34-1.29c2.05,0,4.01,0.55,5.84,1.63
		c1.9,1.13,3.37,2.72,4.38,4.73l20.63,44.45l20.35-44.38l0.04-0.07c1.02-2.05,2.54-3.65,4.52-4.77c1.86-1.05,3.87-1.58,5.99-1.58
		c1.99,0,3.83,0.41,5.47,1.21c2.06,0.96,3.7,2.34,4.87,4.1c1.23,1.85,1.85,3.91,1.85,6.15c0,1.62-0.41,3.28-1.22,4.91l-30.57,64.45
		C-322.35-206.52-326.31-203.8-331.26-203.8z"/>
	<path class="st1" d="M-268.1-203.65c-3.43,0-6.47-1.23-8.79-3.55s-3.55-5.35-3.55-8.78v-64.2c0-3.55,1.25-6.63,3.61-8.92
		c2.31-2.24,5.33-3.42,8.72-3.42c3.52,0,6.58,1.2,8.85,3.47c2.28,2.28,3.48,5.35,3.48,8.86v64.2c0,3.39-1.18,6.41-3.42,8.72
		C-261.47-204.9-264.55-203.65-268.1-203.65z M-268.1-295.41c-3.9,0-7.43-1.48-10.23-4.27c-2.79-2.79-4.27-6.33-4.27-10.23
		c0-3.9,1.48-7.43,4.27-10.23c2.79-2.79,6.33-4.27,10.23-4.27s7.43,1.48,10.23,4.27c2.79,2.79,4.27,6.33,4.27,10.23
		c0,3.9-1.48,7.43-4.27,10.23C-260.67-296.89-264.2-295.41-268.1-295.41z"/>
	<path class="st1" d="M-129.74-203.51c-3.43,0-6.47-1.23-8.79-3.55s-3.55-5.35-3.55-8.78v-41.26c0-4.5-1.01-7.83-3-9.89
		c-1.97-2.04-4.65-3.03-8.18-3.03c-3.64,0-6.4,1.15-8.69,3.61c-2.36,2.53-3.5,5.76-3.5,9.89v40.69c0,3.39-1.18,6.41-3.42,8.72
		c-2.28,2.36-5.37,3.61-8.92,3.61c-3.43,0-6.47-1.23-8.79-3.55c-2.32-2.31-3.55-5.35-3.55-8.78v-41.26c0-4.5-1.01-7.83-3-9.89
		c-1.97-2.04-4.65-3.03-8.18-3.03c-3.74,0-6.55,1.15-8.84,3.61c-2.36,2.53-3.5,5.76-3.5,9.89v40.69c0,3.39-1.18,6.41-3.42,8.72
		c-2.28,2.36-5.36,3.61-8.92,3.61c-3.43,0-6.47-1.23-8.79-3.55s-3.55-5.35-3.55-8.78v-64.2c0-3.55,1.25-6.64,3.61-8.92
		c2.31-2.23,5.33-3.42,8.72-3.42c3.39,0,6.38,1.16,8.65,3.34c0.26,0.25,0.51,0.52,0.75,0.79c1.58-0.98,3.27-1.83,5.05-2.55
		c4.04-1.63,8.45-2.45,13.11-2.45c5.67,0,10.86,1.18,15.45,3.49c2.84,1.44,5.39,3.27,7.62,5.47c2.5-2.18,5.32-4.01,8.45-5.46
		c4.98-2.32,10.54-3.5,16.53-3.5c9.76,0,17.8,3.29,23.9,9.79c6.02,6.41,9.07,15.27,9.07,26.34v41.26c0,3.39-1.18,6.41-3.42,8.72
		C-123.11-204.76-126.19-203.51-129.74-203.51z"/>
</g>
<path class="st0" d="M-407.98-623.08l-0.91,0.01c-15.2,0.21-29.03,7.53-37.96,19.84c-9.15-11.94-23.01-18.91-38.44-18.91h-0.01
	c-12.16,0.05-23.72,5.02-32.54,13.99c-9.78,9.95-15.27,24.02-15.08,38.62c0.06,5.47,0.92,10.8,2.47,15.56
	c3.04,13.31,20.34,32.09,52.91,57.42c8.64,6.67,21.82,15.85,27.44,19.76c1.39,0.97,2.34,1.62,2.65,1.85
	c0.17,0.13,0.35,0.26,0.53,0.36c0.54,0.3,1.14,0.45,1.74,0.45c0.68,0,1.34-0.19,1.94-0.56c7.49-4.76,17.55-12.34,29.87-22.52
	c31.38-25.69,48.65-45.49,51.25-58.54c1.51-5.09,2.24-10.46,2.17-15.94C-360.32-600.02-381.86-623.08-407.98-623.08z"/>
<path class="st1" d="M-319.69-863.47c17.75-25.3,28.2-56.09,28.2-89.33c0-86.02-69.74-155.76-155.77-155.76
	s-155.76,69.74-155.76,155.76c0,33.25,10.44,64.04,28.2,89.33c-208.1,76.82-248.35,291.43-149.42,425.9
	c17.57,23.88,39.52,45.24,65.72,62.84c14.04,9.43,30.87,14.43,47.02,14.35l0,0h17.32h1.71h17.16c23.75,0,43-19.25,43-43v-70.47
	c0-23.25-18.84-42.09-42.09-42.09h-18.88c-0.03,0-0.06,0-0.08,0h-0.98c-3.38,0-6.37-0.98-8.9-2.62
	c-15.87-7.6-21.86-29.56-8.42-44.18l144.62-157.45c10.45-11.38,28.14-12.13,39.52-1.68c0.58,0.54,1.14,1.1,1.68,1.68l52.55,57.21
	v-8.71c0-3.61,2.93-6.53,6.53-6.53h28.06c3.61,0,6.53,2.93,6.53,6.53v53.49l50.93,55.45c13.77,15,7.13,37.69-9.65,44.72
	c-2.34,1.32-5.03,2.08-8.02,2.08h-0.64c-0.31,0.02-0.63,0.02-0.94,0.04v-0.03h-19.78c-23.25,0-42.09,18.84-42.09,42.09v70.47
	c0,23.75,19.25,43,43.01,43h13.14h5.72h22.07v-0.06c16.74-0.42,33.33-5.75,45.01-12.87c26.94-16.43,47.79-40.38,65.36-64.26
	C-69.12-572.04-111.6-786.65-319.69-863.47z"/>
<path class="st1" d="M-376.18-417.16L-376.18-417.16c0,10.43-8.45,18.88-18.88,18.88h-102.76c-10.43,0-18.88-8.45-18.88-18.88l0,0
	c0-10.43,8.45-18.88,18.88-18.88h102.75C-384.64-436.05-376.18-427.59-376.18-417.16z"/>
<g>
	<path class="st0" d="M754.7,369.45c-22.06,0-42.52-5.55-60.81-16.51c-18.25-10.93-32.84-26.07-43.33-45.03
		c-10.48-18.88-15.78-39.97-15.78-62.67c0-22.52,5.32-43.45,15.79-62.25c10.5-18.82,25.07-33.96,43.29-44.99
		c18.31-11.07,38.79-16.68,60.85-16.68c15.52,0,29.26,2.12,40.84,6.29c11.49,4.15,23.21,10.99,34.81,20.32
		c3.6,2.73,6.15,5.83,7.57,9.21c1.28,3.04,1.92,6.48,1.92,10.24c0,6.6-2.57,12.39-7.41,16.74c-4.53,4.07-10.1,6.23-16.11,6.23
		c-5.93,0-11.37-2-16.19-5.91l-0.18-0.14c-6.94-5.93-13.7-10.2-20.06-12.75c-6.23-2.47-14.69-3.72-25.16-3.72
		c-13.07,0-24.75,3.34-35.7,10.2c-10.95,6.86-19.79,16.35-26.25,28.17c-6.48,11.88-9.79,25.03-9.79,39.06
		c0,14.23,3.28,27.42,9.77,39.18c6.46,11.76,15.3,21.21,26.25,28.07c10.95,6.86,22.63,10.2,35.7,10.2
		c16.21,0,31.45-5.52,46.57-16.86l0.22-0.16c4.9-3.46,9.98-5.22,15.08-5.22c6.35,0,11.94,2.41,16.19,7
		c4.05,4.39,6.19,10.18,6.19,16.82c0,6.58-2.57,12.63-7.45,17.51l-0.38,0.38l-0.42,0.34C808.51,360.38,782.93,369.45,754.7,369.45z"
		/>
	<path class="st0" d="M931.19,367.73c-15.48,0-29.73-3.95-42.38-11.72c-12.59-7.75-22.61-18.58-29.79-32.16
		c-7.1-13.44-10.69-28.57-10.69-44.95c0-16.49,3.87-31.69,11.54-45.21c7.69-13.56,18.46-24.39,32.02-32.2
		c13.52-7.77,28.66-11.72,44.97-11.72c16.33,0,31.39,3.95,44.74,11.74c13.32,7.79,24.04,18.6,31.81,32.1
		c7.77,13.54,11.72,28.76,11.72,45.27v63.59c0,6.78-2.43,12.77-7.02,17.36s-10.6,7.02-17.36,7.02c-6.78,0-12.79-2.43-17.38-7.02
		c-2.12-2.12-3.78-4.53-4.94-7.18c-3.84,2.75-7.91,5.16-12.22,7.24C955.45,365.1,943.65,367.73,931.19,367.73z M936.89,235.13
		c-7.75,0-14.53,1.82-20.72,5.57c-6.25,3.78-11.07,8.88-14.71,15.56c-3.7,6.76-5.5,14.17-5.5,22.65c0,8.46,1.8,15.81,5.48,22.48
		c3.66,6.62,8.48,11.66,14.73,15.46c6.19,3.76,12.97,5.57,20.72,5.57s14.53-1.82,20.72-5.57c6.23-3.78,10.99-8.8,14.55-15.38
		c3.62-6.68,5.38-14.06,5.38-22.56c0-8.5-1.76-15.95-5.4-22.73c-3.56-6.64-8.32-11.72-14.53-15.48
		C951.42,236.95,944.64,235.13,936.89,235.13z"/>
	<path class="st0" d="M1194.37,366.88c-6.78,0-12.79-2.43-17.38-7.02c-4.59-4.59-7.02-10.58-7.02-17.36v-70.16
		c0-12.71-3.06-21.8-9.37-27.81c-6.42-6.13-14.98-9.11-26.15-9.11c-6.52,0-12.24,1.25-17.48,3.84c-5.04,2.49-8.82,5.69-11.58,9.79
		c-2.61,3.89-3.89,8.16-3.89,13.05v80.44c0,6.7-2.33,12.67-6.76,17.24c-4.51,4.67-10.6,7.14-17.63,7.14
		c-6.78,0-12.79-2.43-17.38-7.02c-4.59-4.59-7.02-10.58-7.02-17.36V215.32c0-7.02,2.47-13.11,7.14-17.63
		c4.57-4.43,10.54-6.76,17.24-6.76c6.96,0,13.01,2.37,17.49,6.86c1.09,1.09,2.06,2.27,2.89,3.54c3.82-2.37,7.89-4.43,12.2-6.15
		c9.49-3.78,19.73-5.69,30.44-5.69c14.73,0,28.21,3.28,40.07,9.77c12.1,6.6,21.69,16.33,28.47,28.92
		c6.64,12.36,10.02,27.2,10.02,44.18v70.16c0,6.78-2.43,12.77-7.02,17.36C1207.14,364.45,1201.15,366.88,1194.37,366.88z"/>
</g>
<g>
	<path class="st1" d="M751.89,667.44c-6.78,0-12.83-2.47-17.51-7.16s-7.16-10.73-7.16-17.51v-193.1c0-7.02,2.51-13.17,7.27-17.77
		c4.69-4.51,10.69-6.9,17.4-6.9H880.8c6.88,0,12.89,2.27,17.38,6.6c4.59,4.43,7,10.38,7,17.22c0,6.72-2.47,12.57-7.14,16.9
		c-4.53,4.21-10.32,6.33-17.24,6.33H776.54v49.64h72.02c6.64,0,12.55,2.23,17.1,6.48c4.76,4.45,7.27,10.32,7.27,17.04
		s-2.51,12.61-7.27,17.04c-4.57,4.25-10.48,6.48-17.12,6.48h-72.02v51.63h104.26c6.8,0,12.77,2.19,17.24,6.33
		c4.69,4.35,7.14,10.2,7.14,16.92c0,6.84-2.41,12.79-7,17.2c-4.49,4.33-10.5,6.6-17.38,6.6H751.89V667.44z"/>
	<path class="st1" d="M990.55,667.15c-5.24,0-9.79-1.28-13.52-3.85c-3.52-2.39-6.46-5.99-8.95-10.99l-60.51-127.58
		c-1.4-2.87-2.13-6.03-2.13-9.43c0-8.82,4.7-16.07,13.24-20.4c3.14-1.7,6.68-2.55,10.56-2.55c4.05,0,7.93,1.09,11.54,3.22
		c3.76,2.23,6.66,5.38,8.66,9.35l40.78,87.87l40.23-87.73l0.08-0.14c2.02-4.05,5.02-7.22,8.94-9.43c3.68-2.08,7.65-3.12,11.84-3.12
		c3.93,0,7.57,0.81,10.81,2.39c4.07,1.9,7.31,4.63,9.63,8.1c2.43,3.66,3.66,7.73,3.66,12.16c0,3.2-0.81,6.48-2.41,9.71
		l-60.43,127.41C1008.17,661.77,1000.34,667.15,990.55,667.15z"/>
	<path class="st1" d="M1115.41,667.44c-6.78,0-12.79-2.43-17.38-7.02c-4.59-4.59-7.02-10.58-7.02-17.36V516.16
		c0-7.02,2.47-13.11,7.14-17.63c4.57-4.43,10.54-6.76,17.24-6.76c6.96,0,13.01,2.37,17.49,6.86c4.51,4.51,6.88,10.58,6.88,17.51
		v126.91c0,6.7-2.33,12.67-6.76,17.24C1128.52,664.97,1122.43,667.44,1115.41,667.44z M1115.41,486.05
		c-7.71,0-14.69-2.93-20.22-8.44c-5.52-5.52-8.44-12.51-8.44-20.22c0-7.71,2.93-14.69,8.44-20.22c5.52-5.52,12.51-8.44,20.22-8.44
		c7.71,0,14.69,2.93,20.22,8.44c5.52,5.52,8.44,12.51,8.44,20.22c0,7.71-2.93,14.69-8.44,20.22
		C1130.1,483.13,1123.12,486.05,1115.41,486.05z"/>
	<path class="st1" d="M1388.92,667.72c-6.78,0-12.79-2.43-17.38-7.02c-4.59-4.59-7.02-10.58-7.02-17.36v-81.56
		c0-8.9-2-15.48-5.93-19.55c-3.89-4.03-9.19-5.99-16.17-5.99c-7.2,0-12.65,2.27-17.18,7.14c-4.67,5-6.92,11.39-6.92,19.55v80.44
		c0,6.7-2.33,12.67-6.76,17.24c-4.51,4.67-10.62,7.14-17.63,7.14c-6.78,0-12.79-2.43-17.38-7.02c-4.59-4.57-7.02-10.58-7.02-17.36
		V561.8c0-8.9-2-15.48-5.93-19.55c-3.89-4.03-9.19-5.99-16.17-5.99c-7.39,0-12.95,2.27-17.48,7.14c-4.67,5-6.92,11.39-6.92,19.55
		v80.44c0,6.7-2.33,12.67-6.76,17.24c-4.51,4.67-10.6,7.14-17.63,7.14c-6.78,0-12.79-2.43-17.38-7.02
		c-4.59-4.59-7.02-10.58-7.02-17.36V516.47c0-7.02,2.47-13.13,7.14-17.63c4.57-4.41,10.54-6.76,17.24-6.76s12.61,2.29,17.1,6.6
		c0.51,0.49,1.01,1.03,1.48,1.56c3.12-1.94,6.46-3.62,9.98-5.04c7.99-3.22,16.7-4.84,25.92-4.84c11.21,0,21.47,2.33,30.54,6.9
		c5.61,2.85,10.66,6.46,15.06,10.81c4.94-4.31,10.52-7.93,16.7-10.79c9.84-4.59,20.84-6.92,32.68-6.92
		c19.29,0,35.19,6.5,47.25,19.35c11.9,12.67,17.93,30.19,17.93,52.07v81.56c0,6.7-2.33,12.67-6.76,17.24
		C1402.03,665.25,1395.94,667.72,1388.92,667.72z"/>
</g>
<path class="st0" d="M373.57,490.65l-0.91,0.01c-15.2,0.21-29.03,7.53-37.96,19.84c-9.15-11.94-23.01-18.91-38.44-18.91h-0.01
	c-12.16,0.05-23.72,5.02-32.54,13.99c-9.78,9.95-15.27,24.02-15.08,38.62c0.06,5.47,0.92,10.8,2.47,15.56
	c3.04,13.31,20.34,32.09,52.91,57.42c8.64,6.67,21.82,15.85,27.44,19.76c1.39,0.97,2.34,1.62,2.65,1.85
	c0.17,0.13,0.35,0.26,0.53,0.36c0.54,0.3,1.14,0.45,1.74,0.45c0.68,0,1.34-0.19,1.94-0.56c7.49-4.76,17.55-12.34,29.87-22.52
	c31.38-25.69,48.65-45.49,51.25-58.54c1.51-5.09,2.24-10.46,2.17-15.94C421.23,513.71,399.69,490.65,373.57,490.65z"/>
<path class="st1" d="M461.86,253.54c17.75-25.3,28.2-56.09,28.2-89.33c0-86.02-69.74-155.76-155.77-155.76
	S178.53,78.19,178.53,164.21c0,33.25,10.44,64.04,28.2,89.33C-1.37,330.36-41.62,544.97,57.31,679.44
	c17.57,23.88,39.52,45.24,65.72,62.84c14.04,9.43,30.87,14.43,47.02,14.35l0,0h17.32h1.71h17.16c23.75,0,43-19.25,43-43v-70.47
	c0-23.25-18.84-42.09-42.09-42.09h-18.88c-0.03,0-0.06,0-0.08,0h-0.98c-3.38,0-6.37-0.98-8.9-2.62
	c-15.87-7.6-21.86-29.56-8.42-44.18l144.62-157.45c10.45-11.38,28.14-12.13,39.52-1.68c0.58,0.54,1.14,1.1,1.68,1.68l52.55,57.21
	v-8.71c0-3.61,2.93-6.53,6.53-6.53h28.06c3.61,0,6.53,2.93,6.53,6.53v53.49l50.93,55.45c13.77,15,7.13,37.69-9.65,44.72
	c-2.34,1.32-5.03,2.08-8.02,2.08H482c-0.31,0.02-0.63,0.02-0.94,0.04v-0.03h-19.78c-23.25,0-42.09,18.84-42.09,42.09v70.47
	c0,23.75,19.25,43,43.01,43h13.14h5.72h22.07v-0.06c16.74-0.42,33.33-5.75,45.01-12.87c26.94-16.43,47.79-40.38,65.36-64.26
	C712.43,544.97,669.95,330.36,461.86,253.54z"/>
<path class="st1" d="M405.37,696.57L405.37,696.57c0,10.43-8.45,18.88-18.88,18.88H283.73c-10.43,0-18.88-8.45-18.88-18.88l0,0
	c0-10.43,8.45-18.88,18.88-18.88h102.75C396.91,677.68,405.37,686.14,405.37,696.57z"/>
<g>
	<path class="st0" d="M-740.64,369.45c-22.06,0-42.52-5.55-60.81-16.51c-18.25-10.93-32.84-26.07-43.33-45.03
		c-10.48-18.88-15.78-39.97-15.78-62.67c0-22.52,5.32-43.45,15.79-62.25c10.5-18.82,25.07-33.96,43.29-44.99
		c18.31-11.07,38.79-16.68,60.85-16.68c15.52,0,29.26,2.12,40.84,6.29c11.49,4.15,23.21,10.99,34.81,20.32
		c3.6,2.73,6.15,5.83,7.57,9.21c1.28,3.04,1.92,6.48,1.92,10.24c0,6.6-2.57,12.39-7.41,16.74c-4.53,4.07-10.1,6.23-16.11,6.23
		c-5.93,0-11.37-2-16.19-5.91l-0.18-0.14c-6.94-5.93-13.7-10.2-20.06-12.75c-6.23-2.47-14.69-3.72-25.16-3.72
		c-13.07,0-24.75,3.34-35.7,10.2c-10.95,6.86-19.79,16.35-26.25,28.17c-6.48,11.88-9.79,25.03-9.79,39.06
		c0,14.23,3.28,27.42,9.77,39.18c6.46,11.76,15.3,21.21,26.25,28.07c10.95,6.86,22.63,10.2,35.7,10.2
		c16.21,0,31.45-5.52,46.57-16.86l0.22-0.16c4.9-3.46,9.98-5.22,15.08-5.22c6.35,0,11.94,2.41,16.19,7
		c4.05,4.39,6.19,10.18,6.19,16.82c0,6.58-2.57,12.63-7.45,17.51l-0.38,0.38l-0.42,0.34C-686.83,360.38-712.41,369.45-740.64,369.45
		z"/>
	<path class="st0" d="M-564.14,367.73c-15.48,0-29.73-3.95-42.38-11.72c-12.59-7.75-22.61-18.58-29.79-32.16
		c-7.1-13.44-10.69-28.57-10.69-44.95c0-16.49,3.87-31.69,11.54-45.21c7.69-13.56,18.46-24.39,32.02-32.2
		c13.52-7.77,28.66-11.72,44.97-11.72c16.33,0,31.39,3.95,44.74,11.74c13.32,7.79,24.04,18.6,31.81,32.1
		c7.77,13.54,11.72,28.76,11.72,45.27v63.59c0,6.78-2.43,12.77-7.02,17.36s-10.6,7.02-17.36,7.02c-6.78,0-12.79-2.43-17.38-7.02
		c-2.12-2.12-3.78-4.53-4.94-7.18c-3.84,2.75-7.91,5.16-12.22,7.24C-539.89,365.1-551.69,367.73-564.14,367.73z M-558.45,235.13
		c-7.75,0-14.53,1.82-20.72,5.57c-6.25,3.78-11.07,8.88-14.71,15.56c-3.7,6.76-5.5,14.17-5.5,22.65c0,8.46,1.8,15.81,5.48,22.48
		c3.66,6.62,8.48,11.66,14.73,15.46c6.19,3.76,12.97,5.57,20.72,5.57s14.53-1.82,20.72-5.57c6.23-3.78,10.99-8.8,14.55-15.38
		c3.62-6.68,5.38-14.06,5.38-22.56c0-8.5-1.76-15.95-5.4-22.73c-3.56-6.64-8.32-11.72-14.53-15.48
		C-543.92,236.95-550.7,235.13-558.45,235.13z"/>
	<path class="st0" d="M-300.97,366.88c-6.78,0-12.79-2.43-17.38-7.02s-7.02-10.58-7.02-17.36v-70.16c0-12.71-3.06-21.8-9.37-27.81
		c-6.42-6.13-14.98-9.11-26.15-9.11c-6.52,0-12.24,1.25-17.48,3.84c-5.04,2.49-8.82,5.69-11.58,9.79
		c-2.61,3.89-3.89,8.16-3.89,13.05v80.44c0,6.7-2.33,12.67-6.76,17.24c-4.51,4.67-10.6,7.14-17.63,7.14
		c-6.78,0-12.79-2.43-17.38-7.02c-4.59-4.59-7.02-10.58-7.02-17.36V215.32c0-7.02,2.47-13.11,7.14-17.63
		c4.57-4.43,10.54-6.76,17.24-6.76c6.96,0,13.01,2.37,17.49,6.86c1.09,1.09,2.06,2.27,2.89,3.54c3.82-2.37,7.89-4.43,12.2-6.15
		c9.49-3.78,19.73-5.69,30.44-5.69c14.73,0,28.21,3.28,40.07,9.77c12.1,6.6,21.69,16.33,28.47,28.92
		c6.64,12.36,10.02,27.2,10.02,44.18v70.16c0,6.78-2.43,12.77-7.02,17.36C-288.2,364.45-294.19,366.88-300.97,366.88z"/>
</g>
<g>
	<path class="st2" d="M-743.45,667.44c-6.78,0-12.83-2.47-17.51-7.16s-7.16-10.73-7.16-17.51v-193.1c0-7.02,2.51-13.17,7.27-17.77
		c4.69-4.51,10.69-6.9,17.4-6.9h128.91c6.88,0,12.89,2.27,17.38,6.6c4.59,4.43,7,10.38,7,17.22c0,6.72-2.47,12.57-7.14,16.9
		c-4.53,4.21-10.32,6.33-17.24,6.33h-104.26v49.64h72.02c6.64,0,12.55,2.23,17.1,6.48c4.76,4.45,7.27,10.32,7.27,17.04
		s-2.51,12.61-7.27,17.04c-4.57,4.25-10.48,6.48-17.12,6.48h-72.02v51.63h104.26c6.8,0,12.77,2.19,17.24,6.33
		c4.69,4.35,7.14,10.2,7.14,16.92c0,6.84-2.41,12.79-7,17.2c-4.49,4.33-10.5,6.6-17.38,6.6h-128.89V667.44z"/>
	<path class="st2" d="M-504.78,667.15c-5.24,0-9.79-1.28-13.52-3.85c-3.52-2.39-6.46-5.99-8.96-10.99l-60.51-127.58
		c-1.4-2.87-2.13-6.03-2.13-9.43c0-8.82,4.7-16.07,13.24-20.4c3.14-1.7,6.68-2.55,10.56-2.55c4.05,0,7.93,1.09,11.54,3.22
		c3.76,2.23,6.66,5.38,8.66,9.35l40.78,87.87l40.23-87.73l0.08-0.14c2.02-4.05,5.02-7.22,8.94-9.43c3.68-2.08,7.65-3.12,11.84-3.12
		c3.93,0,7.57,0.81,10.81,2.39c4.07,1.9,7.31,4.63,9.63,8.1c2.43,3.66,3.66,7.73,3.66,12.16c0,3.2-0.81,6.48-2.41,9.71
		l-60.43,127.41C-487.17,661.77-495,667.15-504.78,667.15z"/>
	<path class="st2" d="M-379.93,667.44c-6.78,0-12.79-2.43-17.38-7.02s-7.02-10.58-7.02-17.36V516.16c0-7.02,2.47-13.11,7.14-17.63
		c4.57-4.43,10.54-6.76,17.24-6.76c6.96,0,13.01,2.37,17.49,6.86c4.51,4.51,6.88,10.58,6.88,17.51v126.91
		c0,6.7-2.33,12.67-6.76,17.24C-366.82,664.97-372.91,667.44-379.93,667.44z M-379.93,486.05c-7.71,0-14.69-2.93-20.22-8.44
		c-5.52-5.52-8.44-12.51-8.44-20.22c0-7.71,2.93-14.69,8.44-20.22c5.52-5.52,12.51-8.44,20.22-8.44s14.69,2.93,20.22,8.44
		c5.52,5.52,8.44,12.51,8.44,20.22c0,7.71-2.93,14.69-8.44,20.22C-365.24,483.13-372.22,486.05-379.93,486.05z"/>
	<path class="st2" d="M-106.41,667.72c-6.78,0-12.79-2.43-17.38-7.02s-7.02-10.58-7.02-17.36v-81.56c0-8.9-2-15.48-5.93-19.55
		c-3.89-4.03-9.19-5.99-16.17-5.99c-7.2,0-12.65,2.27-17.18,7.14c-4.67,5-6.92,11.39-6.92,19.55v80.44c0,6.7-2.33,12.67-6.76,17.24
		c-4.51,4.67-10.62,7.14-17.63,7.14c-6.78,0-12.79-2.43-17.38-7.02c-4.59-4.57-7.02-10.58-7.02-17.36V561.8
		c0-8.9-2-15.48-5.93-19.55c-3.89-4.03-9.19-5.99-16.17-5.99c-7.39,0-12.95,2.27-17.48,7.14c-4.67,5-6.92,11.39-6.92,19.55v80.44
		c0,6.7-2.33,12.67-6.76,17.24c-4.51,4.67-10.6,7.14-17.63,7.14c-6.78,0-12.79-2.43-17.38-7.02s-7.02-10.58-7.02-17.36V516.47
		c0-7.02,2.47-13.13,7.14-17.63c4.57-4.41,10.54-6.76,17.24-6.76c6.7,0,12.61,2.29,17.1,6.6c0.51,0.49,1.01,1.03,1.48,1.56
		c3.12-1.94,6.46-3.62,9.98-5.04c7.99-3.22,16.7-4.84,25.92-4.84c11.21,0,21.47,2.33,30.54,6.9c5.61,2.85,10.66,6.46,15.06,10.81
		c4.94-4.31,10.52-7.93,16.7-10.79c9.84-4.59,20.84-6.92,32.68-6.92c19.29,0,35.19,6.5,47.25,19.35
		c11.9,12.67,17.93,30.19,17.93,52.07v81.56c0,6.7-2.33,12.67-6.76,17.24C-93.31,665.25-99.4,667.72-106.41,667.72z"/>
</g>
<path class="st0" d="M-1121.77,490.65l-0.91,0.01c-15.2,0.21-29.03,7.53-37.96,19.84c-9.15-11.94-23.01-18.91-38.44-18.91h-0.01
	c-12.16,0.05-23.72,5.02-32.54,13.99c-9.78,9.95-15.27,24.02-15.08,38.62c0.06,5.47,0.92,10.8,2.47,15.56
	c3.04,13.31,20.34,32.09,52.91,57.42c8.64,6.67,21.82,15.85,27.44,19.76c1.39,0.97,2.34,1.62,2.65,1.85
	c0.17,0.13,0.35,0.26,0.53,0.36c0.54,0.3,1.14,0.45,1.74,0.45c0.68,0,1.34-0.19,1.94-0.56c7.49-4.76,17.55-12.34,29.87-22.52
	c31.38-25.69,48.65-45.49,51.25-58.54c1.51-5.09,2.24-10.46,2.17-15.94C-1074.11,513.71-1095.65,490.65-1121.77,490.65z"/>
<path class="st2" d="M-1033.48,253.54c17.75-25.3,28.2-56.09,28.2-89.33c0-86.02-69.74-155.76-155.77-155.76
	c-86.03,0-155.76,69.74-155.76,155.76c0,33.25,10.44,64.04,28.2,89.33c-208.1,76.82-248.35,291.43-149.42,425.9
	c17.57,23.88,39.52,45.24,65.72,62.84c14.04,9.43,30.87,14.43,47.02,14.35l0,0h17.32h1.71h17.16c23.75,0,43-19.25,43-43v-70.47
	c0-23.25-18.84-42.09-42.09-42.09h-18.88c-0.03,0-0.06,0-0.08,0h-0.98c-3.38,0-6.37-0.98-8.9-2.62
	c-15.87-7.6-21.86-29.56-8.42-44.18l144.62-157.45c10.45-11.38,28.14-12.13,39.52-1.68c0.58,0.54,1.14,1.1,1.68,1.68l52.55,57.21
	v-8.71c0-3.61,2.93-6.53,6.53-6.53h28.06c3.61,0,6.53,2.93,6.53,6.53v53.49l50.93,55.45c13.77,15,7.13,37.69-9.65,44.72
	c-2.34,1.32-5.03,2.08-8.02,2.08h-0.64c-0.31,0.02-0.63,0.02-0.94,0.04v-0.03h-19.78c-23.25,0-42.09,18.84-42.09,42.09v70.47
	c0,23.75,19.25,43,43.01,43h13.14h5.72h22.07v-0.06c16.74-0.42,33.33-5.75,45.01-12.87c26.94-16.43,47.79-40.38,65.36-64.26
	C-782.91,544.97-825.39,330.36-1033.48,253.54z"/>
<path class="st2" d="M-1089.97,696.57L-1089.97,696.57c0,10.43-8.45,18.88-18.88,18.88h-102.76c-10.43,0-18.88-8.45-18.88-18.88l0,0
	c0-10.43,8.45-18.88,18.88-18.88h102.75C-1098.43,677.68-1089.97,686.14-1089.97,696.57z"/>
<g>
	<path class="st0" d="M-1428.79-202.21c-11.16,0-21.51-2.81-30.76-8.35c-9.23-5.53-16.61-13.19-21.92-22.78
		c-5.3-9.55-7.98-20.22-7.98-31.7c0-11.39,2.69-21.98,7.99-31.49c5.31-9.52,12.68-17.18,21.9-22.76c9.26-5.6,19.62-8.44,30.78-8.44
		c7.85,0,14.8,1.07,20.66,3.18c5.81,2.1,11.74,5.56,17.61,10.28c1.82,1.38,3.11,2.95,3.83,4.66c0.65,1.54,0.97,3.28,0.97,5.18
		c0,3.34-1.3,6.27-3.75,8.47c-2.29,2.06-5.11,3.15-8.15,3.15c-3,0-5.75-1.01-8.19-2.99l-0.09-0.07c-3.51-3-6.93-5.16-10.15-6.45
		c-3.15-1.25-7.43-1.88-12.73-1.88c-6.61,0-12.52,1.69-18.06,5.16c-5.54,3.47-10.01,8.27-13.28,14.25
		c-3.28,6.01-4.95,12.66-4.95,19.76c0,7.2,1.66,13.87,4.94,19.82c3.27,5.95,7.74,10.73,13.28,14.2c5.54,3.47,11.45,5.16,18.06,5.16
		c8.2,0,15.91-2.79,23.56-8.53l0.11-0.08c2.48-1.75,5.05-2.64,7.63-2.64c3.21,0,6.04,1.22,8.19,3.54c2.05,2.22,3.13,5.15,3.13,8.51
		c0,3.33-1.3,6.39-3.77,8.86l-0.19,0.19l-0.21,0.17C-1401.57-206.8-1414.51-202.21-1428.79-202.21z"/>
	<path class="st0" d="M-1339.51-203.08c-7.83,0-15.04-2-21.44-5.93c-6.37-3.92-11.44-9.4-15.07-16.27
		c-3.59-6.8-5.41-14.45-5.41-22.74c0-8.34,1.96-16.03,5.84-22.87c3.89-6.86,9.34-12.34,16.2-16.29c6.84-3.93,14.5-5.93,22.75-5.93
		c8.26,0,15.88,2,22.63,5.94c6.74,3.94,12.16,9.41,16.09,16.24c3.93,6.85,5.93,14.55,5.93,22.9v32.17c0,3.43-1.23,6.46-3.55,8.78
		c-2.32,2.32-5.36,3.55-8.78,3.55c-3.43,0-6.47-1.23-8.79-3.55c-1.07-1.07-1.91-2.29-2.5-3.63c-1.94,1.39-4,2.61-6.18,3.66
		C-1327.24-204.41-1333.21-203.08-1339.51-203.08z M-1336.63-270.16c-3.92,0-7.35,0.92-10.48,2.82c-3.16,1.91-5.6,4.49-7.44,7.87
		c-1.87,3.42-2.78,7.17-2.78,11.46c0,4.28,0.91,8,2.77,11.37c1.85,3.35,4.29,5.9,7.45,7.82c3.13,1.9,6.56,2.82,10.48,2.82
		c3.92,0,7.35-0.92,10.48-2.82c3.15-1.91,5.56-4.45,7.36-7.78c1.83-3.38,2.72-7.11,2.72-11.41s-0.89-8.07-2.73-11.5
		c-1.8-3.36-4.21-5.93-7.35-7.83C-1329.28-269.24-1332.71-270.16-1336.63-270.16z"/>
	<path class="st0" d="M-1206.38-203.51c-3.43,0-6.47-1.23-8.79-3.55c-2.32-2.32-3.55-5.35-3.55-8.78v-35.49
		c0-6.43-1.55-11.03-4.74-14.07c-3.25-3.1-7.58-4.61-13.23-4.61c-3.3,0-6.19,0.63-8.84,1.94c-2.55,1.26-4.46,2.88-5.86,4.95
		c-1.32,1.97-1.97,4.13-1.97,6.6v40.69c0,3.39-1.18,6.41-3.42,8.72c-2.28,2.36-5.36,3.61-8.92,3.61c-3.43,0-6.47-1.23-8.79-3.55
		s-3.55-5.35-3.55-8.78v-64.35c0-3.55,1.25-6.63,3.61-8.92c2.31-2.24,5.33-3.42,8.72-3.42c3.52,0,6.58,1.2,8.85,3.47
		c0.55,0.55,1.04,1.15,1.46,1.79c1.93-1.2,3.99-2.24,6.17-3.11c4.8-1.91,9.98-2.88,15.4-2.88c7.45,0,14.27,1.66,20.27,4.94
		c6.12,3.34,10.97,8.26,14.4,14.63c3.36,6.25,5.07,13.76,5.07,22.35v35.49c0,3.43-1.23,6.46-3.55,8.78
		C-1199.92-204.74-1202.95-203.51-1206.38-203.51z"/>
</g>
<g>
	<path class="st2" d="M-1165.78-203.65c-3.43,0-6.49-1.25-8.86-3.62s-3.62-5.43-3.62-8.86v-97.68c0-3.55,1.27-6.66,3.68-8.99
		c2.37-2.28,5.41-3.49,8.8-3.49h65.21c3.48,0,6.52,1.15,8.79,3.34c2.32,2.24,3.54,5.25,3.54,8.71c0,3.4-1.25,6.36-3.61,8.55
		c-2.29,2.13-5.22,3.2-8.72,3.2h-52.74v25.11h36.43c3.36,0,6.35,1.13,8.65,3.28c2.41,2.25,3.68,5.22,3.68,8.62s-1.27,6.38-3.68,8.62
		c-2.31,2.15-5.3,3.28-8.66,3.28h-36.43v26.12h52.74c3.44,0,6.46,1.11,8.72,3.2c2.37,2.2,3.61,5.16,3.61,8.56
		c0,3.46-1.22,6.47-3.54,8.7c-2.27,2.19-5.31,3.34-8.79,3.34L-1165.78-203.65L-1165.78-203.65z"/>
	<path class="st2" d="M-1045.05-203.8c-2.65,0-4.95-0.65-6.84-1.95c-1.78-1.21-3.27-3.03-4.53-5.56l-30.61-64.54
		c-0.71-1.45-1.08-3.05-1.08-4.77c0-4.46,2.38-8.13,6.7-10.32c1.59-0.86,3.38-1.29,5.34-1.29c2.05,0,4.01,0.55,5.84,1.63
		c1.9,1.13,3.37,2.72,4.38,4.73l20.63,44.45l20.35-44.38l0.04-0.07c1.02-2.05,2.54-3.65,4.52-4.77c1.86-1.05,3.87-1.58,5.99-1.58
		c1.99,0,3.83,0.41,5.47,1.21c2.06,0.96,3.7,2.34,4.87,4.1c1.23,1.85,1.85,3.91,1.85,6.15c0,1.62-0.41,3.28-1.22,4.91l-30.57,64.45
		C-1036.14-206.52-1040.1-203.8-1045.05-203.8z"/>
	<path class="st2" d="M-981.89-203.65c-3.43,0-6.47-1.23-8.79-3.55s-3.55-5.35-3.55-8.78v-64.2c0-3.55,1.25-6.63,3.61-8.92
		c2.31-2.24,5.33-3.42,8.72-3.42c3.52,0,6.58,1.2,8.85,3.47c2.28,2.28,3.48,5.35,3.48,8.86v64.2c0,3.39-1.18,6.41-3.42,8.72
		C-975.26-204.9-978.34-203.65-981.89-203.65z M-981.89-295.41c-3.9,0-7.43-1.48-10.23-4.27c-2.79-2.79-4.27-6.33-4.27-10.23
		c0-3.9,1.48-7.43,4.27-10.23c2.79-2.79,6.33-4.27,10.23-4.27s7.43,1.48,10.23,4.27c2.79,2.79,4.27,6.33,4.27,10.23
		c0,3.9-1.48,7.43-4.27,10.23C-974.46-296.89-977.99-295.41-981.89-295.41z"/>
	<path class="st2" d="M-843.53-203.51c-3.43,0-6.47-1.23-8.79-3.55s-3.55-5.35-3.55-8.78v-41.26c0-4.5-1.01-7.83-3-9.89
		c-1.97-2.04-4.65-3.03-8.18-3.03c-3.64,0-6.4,1.15-8.69,3.61c-2.36,2.53-3.5,5.76-3.5,9.89v40.69c0,3.39-1.18,6.41-3.42,8.72
		c-2.28,2.36-5.37,3.61-8.92,3.61c-3.43,0-6.47-1.23-8.79-3.55c-2.32-2.31-3.55-5.35-3.55-8.78v-41.26c0-4.5-1.01-7.83-3-9.89
		c-1.97-2.04-4.65-3.03-8.18-3.03c-3.74,0-6.55,1.15-8.84,3.61c-2.36,2.53-3.5,5.76-3.5,9.89v40.69c0,3.39-1.18,6.41-3.42,8.72
		c-2.28,2.36-5.36,3.61-8.92,3.61c-3.43,0-6.47-1.23-8.79-3.55s-3.55-5.35-3.55-8.78v-64.2c0-3.55,1.25-6.64,3.61-8.92
		c2.31-2.23,5.33-3.42,8.72-3.42c3.39,0,6.38,1.16,8.65,3.34c0.26,0.25,0.51,0.52,0.75,0.79c1.58-0.98,3.27-1.83,5.05-2.55
		c4.04-1.63,8.45-2.45,13.11-2.45c5.67,0,10.86,1.18,15.45,3.49c2.84,1.44,5.39,3.27,7.62,5.47c2.5-2.18,5.32-4.01,8.45-5.46
		c4.98-2.32,10.54-3.5,16.53-3.5c9.76,0,17.8,3.29,23.9,9.79c6.02,6.41,9.07,15.27,9.07,26.34v41.26c0,3.39-1.18,6.41-3.42,8.72
		C-836.9-204.76-839.98-203.51-843.53-203.51z"/>
</g>
<path class="st0" d="M-1121.77-623.08l-0.91,0.01c-15.2,0.21-29.03,7.53-37.96,19.84c-9.15-11.94-23.01-18.91-38.44-18.91h-0.01
	c-12.16,0.05-23.72,5.02-32.54,13.99c-9.78,9.95-15.27,24.02-15.08,38.62c0.06,5.47,0.92,10.8,2.47,15.56
	c3.04,13.31,20.34,32.09,52.91,57.42c8.64,6.67,21.82,15.85,27.44,19.76c1.39,0.97,2.34,1.62,2.65,1.85
	c0.17,0.13,0.35,0.26,0.53,0.36c0.54,0.3,1.14,0.45,1.74,0.45c0.68,0,1.34-0.19,1.94-0.56c7.49-4.76,17.55-12.34,29.87-22.52
	c31.38-25.69,48.65-45.49,51.25-58.54c1.51-5.09,2.24-10.46,2.17-15.94C-1074.11-600.02-1095.65-623.08-1121.77-623.08z"/>
<path class="st2" d="M-1033.48-863.47c17.75-25.3,28.2-56.09,28.2-89.33c0-86.02-69.74-155.76-155.77-155.76
	c-86.03,0-155.76,69.74-155.76,155.76c0,33.25,10.44,64.04,28.2,89.33c-208.1,76.82-248.35,291.43-149.42,425.9
	c17.57,23.88,39.52,45.24,65.72,62.84c14.04,9.43,30.87,14.43,47.02,14.35l0,0h17.32h1.71h17.16c23.75,0,43-19.25,43-43v-70.47
	c0-23.25-18.84-42.09-42.09-42.09h-18.88c-0.03,0-0.06,0-0.08,0h-0.98c-3.38,0-6.37-0.98-8.9-2.62
	c-15.87-7.6-21.86-29.56-8.42-44.18l144.62-157.45c10.45-11.38,28.14-12.13,39.52-1.68c0.58,0.54,1.14,1.1,1.68,1.68l52.55,57.21
	v-8.71c0-3.61,2.93-6.53,6.53-6.53h28.06c3.61,0,6.53,2.93,6.53,6.53v53.49l50.93,55.45c13.77,15,7.13,37.69-9.65,44.72
	c-2.34,1.32-5.03,2.08-8.02,2.08h-0.64c-0.31,0.02-0.63,0.02-0.94,0.04v-0.03h-19.78c-23.25,0-42.09,18.84-42.09,42.09v70.47
	c0,23.75,19.25,43,43.01,43h13.14h5.72h22.07v-0.06c16.74-0.42,33.33-5.75,45.01-12.87c26.94-16.43,47.79-40.38,65.36-64.26
	C-782.91-572.04-825.39-786.65-1033.48-863.47z"/>
<path class="st2" d="M-1089.97-417.16L-1089.97-417.16c0,10.43-8.45,18.88-18.88,18.88h-102.76c-10.43,0-18.88-8.45-18.88-18.88l0,0
	c0-10.43,8.45-18.88,18.88-18.88h102.75C-1098.43-436.05-1089.97-427.59-1089.97-417.16z"/>
</svg>
